<?xml version="1.0" encoding="UTF-8"?>
<svg width="41px" height="48px" viewBox="0 0 41 48" version="1.1" xmlns="http://www.w3.org/2000/svg" xmlns:xlink="http://www.w3.org/1999/xlink">
    <title>星星切图</title>
    <g id="小溪里-增加响应式" stroke="none" stroke-width="1" fill="none" fill-rule="evenodd">
        <g id="小溪里首页-PC-1440-深色模式" transform="translate(-480.000000, -576.000000)" fill-rule="nonzero">
            <g id="模块-核心竞争力" transform="translate(120.000000, 548.000000)">
                <g id="用户体验-2" transform="translate(310.000000, 0.000000)">
                    <g id="Group-11" transform="translate(50.000000, 28.000000)">
                        <g id="favorites" transform="translate(0.000000, 5.000000)">
                            <path d="M37.6318829,15.7070508 C38.3688871,14.9898038 38.6290764,13.9371483 38.3110938,12.9598923 C37.9930317,11.9826364 37.1627791,11.2838027 36.1442808,11.1360992 L27.238383,9.84407038 C27.0635721,9.81875204 26.9124508,9.70914508 26.8342271,9.55088564 L22.8514155,1.49386115 C22.3959849,0.572400735 21.4736764,0 20.4444444,0 C19.415216,0 18.4929074,0.572400735 18.0374768,1.49386115 L14.0546652,9.55096501 C13.976362,9.70914508 13.8253203,9.81875204 13.6504298,9.84414975 L4.74469104,11.1360992 C3.72619276,11.2838027 2.89601967,11.9826364 2.57787807,12.9598923 C2.25973648,13.9371483 2.52000524,14.9898038 3.25708892,15.7070508 L9.70140388,21.9786167 C9.82788146,22.1017956 9.8856748,22.2791827 9.85578443,22.4530776 L8.33447616,31.3086217 C8.16053967,32.3214345 8.56962429,33.3256756 9.40226174,33.9296647 C10.2348992,34.5338126 11.3182659,34.6118311 12.2291271,34.1337987 L20.1946708,29.9527812 C20.3511183,29.8706355 20.5378536,29.8706355 20.6943805,29.9527812 L28.6600037,34.1337987 C29.0562101,34.3417424 29.4849301,34.4444444 29.9115833,34.4444444 C30.465668,34.4444444 31.0162548,34.2711051 31.4866306,33.9295853 C32.3192681,33.3255168 32.7284322,32.3211964 32.5544162,31.3085424 L31.0331079,22.4529982 C31.003297,22.2791033 31.0610109,22.1017162 31.1874885,21.9785374 L37.6318829,15.7070508 Z M28.9168542,22.8155504 L30.4381625,31.6712533 C30.4890397,31.9676128 30.3058022,32.1365869 30.2246371,32.1953984 C30.1433926,32.2541306 29.9257335,32.3761189 29.6592641,32.2361141 L21.6936408,28.0550966 C21.3026017,27.8499308 20.8736432,27.7472288 20.4446052,27.7472288 C20.0155671,27.7472288 19.5865291,27.8499308 19.1955695,28.0550172 L11.2300258,32.2359554 C10.9633973,32.3758808 10.7458177,32.2540512 10.6646527,32.1952397 C10.5834876,32.1364281 10.4001707,31.967454 10.4511274,31.6710946 L11.9724356,22.8155504 C12.121808,21.9460759 11.8333183,21.0593786 11.2004534,20.4435637 L4.75613841,14.1719977 C4.54046671,13.9619905 4.58927704,13.7177757 4.62035984,13.6225343 C4.65128365,13.5272135 4.75566144,13.3009359 5.05369063,13.2577598 L13.9593499,11.965731 C14.8337226,11.8389012 15.5893288,11.2909458 15.9804474,10.499728 L19.963259,2.4426241 C20.0965732,2.17301161 20.3442817,2.14388362 20.4446847,2.14388362 C20.5449287,2.14388362 20.7926371,2.17293224 20.9260308,2.4426241 L20.9260308,2.44270347 L24.9088424,10.4998073 C25.2998816,11.2910251 26.0554082,11.8389806 26.9297809,11.9658104 L35.8355992,13.2578392 C36.1336284,13.3010153 36.2379267,13.5272929 36.26893,13.6226137 C36.2999333,13.7179344 36.3488231,13.9622286 36.1330719,14.1720771 L29.688757,20.4436431 C29.0559716,21.0593786 28.7674819,21.9460759 28.9168542,22.8155504 Z" id="Shape" fill="#FFFFFF"></path>
                            <path d="M32.8844637,1.54184249 C32.397893,1.18754218 31.7171294,1.29567489 31.3637289,1.78332273 L30.2080026,3.37799744 C29.8546021,3.86564528 29.9623796,4.54830376 30.4488696,4.90260408 C30.6422565,5.04330592 30.8661144,5.11111111 31.0879571,5.11111111 C31.4246711,5.11111111 31.756629,4.9550541 31.9696045,4.66120466 L33.1253307,3.06652996 C33.4787312,2.5788013 33.3709537,1.89614281 32.8844637,1.54184249 Z" id="Shape" fill="#5773FF"></path>
                            <path d="M10.4586251,3.37790043 L9.30290477,1.78321083 C8.94958663,1.29572007 8.26874586,1.18758635 7.78217768,1.54172834 C7.29577072,1.89603197 7.18791316,2.57869683 7.54131192,3.06634922 L8.69703227,4.66103882 C8.91008722,4.95513346 9.24204345,5.11111111 9.57883633,5.11111111 C9.8007585,5.11111111 10.0246959,5.04330528 10.21784,4.90252132 C10.7042469,4.5482985 10.8121045,3.86563364 10.4586251,3.37790043 Z" id="Shape" fill="#5773FF"></path>
                            <path d="M3.9470528,24.0537028 C3.76344782,23.5063815 3.15655571,23.2067552 2.59140287,23.3846173 L0.743643809,23.9662764 C0.178490965,24.1441385 -0.130650429,24.7322022 0.0529545476,25.2795236 C0.200635079,25.7200505 0.622408766,26 1.07588518,26 C1.18604816,26 1.29812287,25.9834098 1.40860448,25.948609 L3.25636354,25.3669499 C3.82143673,25.1890878 4.13065777,24.6011785 3.9470528,24.0537028 Z" id="Shape" fill="#5773FF"></path>
                            <path d="M20.4444444,36 C19.8308077,36 19.3333333,36.470547 19.3333333,37.0509688 L19.3333333,38.9490312 C19.3333333,39.529453 19.8308077,40 20.4444444,40 C21.0580812,40 21.5555556,39.529453 21.5555556,38.9490312 L21.5555556,37.0509688 C21.5555556,36.4704692 21.0581634,36 20.4444444,36 Z" id="Shape" fill="#5773FF"></path>
                            <path d="M39.9230302,23.9662551 L38.0752711,23.3845678 C37.5103573,23.2068514 36.9032262,23.5062606 36.7196212,24.0537628 C36.5360162,24.601265 36.8451576,25.1892029 37.4103105,25.3670736 L39.2580695,25.9487609 C39.3685511,25.9834862 39.4805462,26 39.5907092,26 C40.0442652,26 40.4660389,25.7199598 40.6137195,25.2794887 C40.7973244,24.7320636 40.4881034,24.1441258 39.9230302,23.9662551 Z" id="Shape" fill="#5773FF"></path>
                        </g>
                    </g>
                </g>
            </g>
        </g>
    </g>
</svg>