<?xml version="1.0" encoding="UTF-8"?>
<svg width="55px" height="48px" viewBox="0 0 55 48" version="1.1" xmlns="http://www.w3.org/2000/svg" xmlns:xlink="http://www.w3.org/1999/xlink">
    <title>圆环切图</title>
    <g id="小溪里-增加响应式" stroke="none" stroke-width="1" fill="none" fill-rule="evenodd">
        <g id="小溪里首页-PC-1440" transform="translate(-1101.000000, -576.000000)" fill-rule="nonzero">
            <g id="模块-核心竞争力" transform="translate(120.000000, 548.000000)">
                <g id="开源创造" transform="translate(931.000000, 0.000000)">
                    <g id="Group-12" transform="translate(50.000000, 28.000000)">
                        <g id="line-chart" transform="translate(0.000000, 11.000000)">
                            <path d="M48.7645984,0.0724590164 C45.5704344,0.0724590164 42.9718197,2.67118033 42.9718197,5.86534426 C42.9718197,7.03033607 43.3186639,8.11519672 43.9128279,9.02445082 L37.6543934,15.2828852 C36.7450328,14.6887213 35.6601721,14.341877 34.4951803,14.341877 C33.2879918,14.341877 32.1660492,14.7135492 31.237082,15.3478852 L24.9141803,9.02402459 C25.5082377,8.11477049 25.8548689,7.03001639 25.8548689,5.8652377 C25.8548689,2.67107377 23.2562541,0.0724590164 20.0620902,0.0724590164 C16.8679262,0.0724590164 14.2693115,2.67107377 14.2693115,5.8652377 C14.2693115,7.03001639 14.6160492,8.11445082 15.2098934,9.02370492 L8.9512459,15.282459 C8.04209836,14.6885082 6.95745082,14.341877 5.79277869,14.341877 C2.59861475,14.341877 0,16.9405984 0,20.1347623 C0,23.3289262 2.59861475,25.927541 5.79277869,25.927541 C8.98694262,25.927541 11.5855574,23.3289262 11.5855574,20.1347623 C11.5855574,18.9697705 11.2387131,17.8849098 10.6445492,16.9755492 L16.9029836,10.7171148 C17.8123443,11.3112787 18.8972049,11.658123 20.0621967,11.658123 C21.227082,11.658123 22.3119426,11.3112787 23.2211967,10.7171148 L29.5790492,17.0758197 C29.0243115,17.9642951 28.7025082,19.0123934 28.7025082,20.1346557 C28.7025082,23.3288197 31.301123,25.927541 34.4952869,25.927541 C37.6894508,25.927541 40.2880656,23.3288197 40.2880656,20.1346557 C40.2880656,18.969877 39.9413279,17.8853361 39.3474836,16.9761885 L45.6062377,10.7174344 C46.5154918,11.3113852 47.6001393,11.6580164 48.7647049,11.6580164 C51.9588689,11.6580164 54.5574836,9.05940164 54.5574836,5.8652377 C54.5574836,2.67096721 51.9587623,0.0724590164 48.7645984,0.0724590164 Z M5.79277869,23.5330902 C3.91886066,23.5330902 2.39434426,22.0085738 2.39434426,20.1347623 C2.39434426,18.2608443 3.91886066,16.7363279 5.79277869,16.7363279 C7.66659016,16.7363279 9.19121311,18.2608443 9.19121311,20.1347623 C9.19121311,22.0085738 7.66669672,23.5330902 5.79277869,23.5330902 Z M20.0621967,9.26367213 C18.1883852,9.26367213 16.6637623,7.73915574 16.6637623,5.8652377 C16.6637623,3.99142623 18.1882787,2.46680328 20.0621967,2.46680328 C21.9361148,2.46680328 23.4606311,3.99131967 23.4606311,5.8652377 C23.4606311,7.73915574 21.9361148,9.26367213 20.0621967,9.26367213 Z M34.4951803,23.5330902 C32.6213689,23.5330902 31.0967459,22.0085738 31.0967459,20.1346557 C31.0967459,18.2607377 32.6212623,16.7362213 34.4951803,16.7362213 C36.3689918,16.7362213 37.8936148,18.2607377 37.8936148,20.1346557 C37.8935082,22.0085738 36.3689918,23.5330902 34.4951803,23.5330902 Z M48.7645984,9.26367213 C46.8907869,9.26367213 45.3661639,7.73915574 45.3661639,5.8652377 C45.3661639,3.99142623 46.8906803,2.46680328 48.7645984,2.46680328 C50.6384098,2.46680328 52.1630328,3.99131967 52.1630328,5.8652377 C52.1630328,7.73915574 50.6384098,9.26367213 48.7645984,9.26367213 Z" id="Shape" fill="#333333"></path>
                            <path d="M18.8365738,14.7813197 C18.369,14.3138525 17.6110574,14.3138525 17.1434836,14.7813197 L14.7082213,17.216582 C14.2407541,17.6840492 14.2407541,18.4420984 14.7083279,18.9096721 C14.9421148,19.143459 15.2484672,19.2603525 15.5548197,19.2603525 C15.8611721,19.2603525 16.1676311,19.1433525 16.4013115,18.9096721 L18.8365738,16.4744098 C19.3042541,16.0069426 19.3042541,15.2487869 18.8365738,14.7813197 Z" id="Shape" fill="#0D5AFE"></path>
                            <path d="M39.8484098,7.13284426 C39.3808361,6.66537705 38.623,6.66537705 38.1552131,7.13295082 L35.7199508,9.56821311 C35.2524836,10.0356803 35.2524836,10.7937295 35.7199508,11.2613033 C35.9538443,11.4949836 36.2601967,11.611877 36.5665492,11.611877 C36.8730082,11.611877 37.1792541,11.494877 37.413041,11.2611967 L39.8483033,8.82593443 C40.315877,8.35836066 40.315877,7.60031148 39.8484098,7.13284426 Z" id="Shape" fill="#0D5AFE"></path>
                        </g>
                    </g>
                </g>
            </g>
        </g>
    </g>
</svg>