<?xml version="1.0" encoding="UTF-8"?>
<svg width="24px" height="24px" viewBox="0 0 24 24" version="1.1" xmlns="http://www.w3.org/2000/svg" xmlns:xlink="http://www.w3.org/1999/xlink">
    <title>月亮切图</title>
    <g id="小溪里-增加响应式" stroke="none" stroke-width="1" fill="none" fill-rule="evenodd">
        <g id="小溪里首页-PC-1440" transform="translate(-1164.000000, -36.000000)" fill="#FFFFFF" fill-rule="nonzero">
            <g id="Header" transform="translate(120.000000, 21.000000)">
                <g id="切换区" transform="translate(1044.000000, 15.000000)">
                    <g id="月亮图标-copy" transform="translate(2.000000, 1.000000)">
                        <path d="M11.9356756,4.76363636 C11.918338,4.70909091 11.866325,4.67272727 11.814312,4.65454545 L11.2941823,4.58181818 L11.0687927,4.09090909 C11.0514551,4.03636364 11.0167798,4 10.9474291,4 C10.9474291,4 10.9474291,4 10.9474291,4 C10.8954161,4 10.8434032,4.03636364 10.8260655,4.07272727 L10.600676,4.58181818 L10.0805462,4.65454545 C10.0285332,4.65454545 9.97652026,4.70909091 9.9591826,4.76363636 C9.94184494,4.81818182 9.9591826,4.87272727 9.99385792,4.90909091 L10.3579487,5.29090909 L10.2712604,5.83636364 C10.2539228,5.89090909 10.2885981,5.94545455 10.3232734,5.98181818 C10.3752864,6 10.3926241,6 10.4272994,6 C10.444637,6 10.4793123,6 10.49665,5.98181818 L10.9647668,5.72727273 L11.4328836,5.98181818 C11.4848965,6 11.5369095,6 11.5889225,5.96363636 C11.6409355,5.92727273 11.6582731,5.87272727 11.6409355,5.81818182 L11.5542472,5.27272727 L11.918338,4.89090909 C11.9356756,4.87272727 11.9530133,4.81818182 11.9356756,4.76363636 Z" id="Shape"></path>
                        <path d="M15.9110076,9.72093023 C15.8896024,9.6744186 15.846792,9.62790698 15.8039817,9.62790698 L15.2902573,9.55813953 L15.0548002,9.06976744 C15.0333951,9.02325581 14.9905847,9 14.9263691,9 C14.9263691,9 14.9263691,9 14.9263691,9 C14.8621536,9 14.8193432,9.02325581 14.797938,9.06976744 L14.562481,9.55813953 L14.0487566,9.62790698 C14.0059462,9.62790698 13.9417307,9.6744186 13.9417307,9.72093023 C13.9203255,9.76744186 13.9417307,9.8372093 13.9845411,9.88372093 L14.3484292,10.2790698 L14.2628084,10.8372093 C14.2628084,10.8837209 14.2842136,10.9534884 14.327024,10.9767442 C14.3484292,11 14.3698344,11 14.4126447,11 C14.4340499,11 14.4554551,11 14.4768603,10.9767442 L14.9263691,10.7209302 L15.375878,10.9767442 C15.4186884,11 15.4829039,11 15.5257143,10.9534884 C15.5685247,10.9302326 15.5899298,10.8604651 15.5899298,10.8139535 L15.5043091,10.255814 L15.8681972,9.86046512 C15.9324128,9.8372093 15.9324128,9.79069767 15.9110076,9.72093023 Z" id="Shape"></path>
                        <path d="M17.9069086,2.12420805 C17.885072,2.05394505 17.8195624,1.98368204 17.7322162,1.96026104 L16.967937,1.84315604 L16.6185522,1.11710501 C16.5748791,1.046842 16.5093695,1 16.4220233,1 C16.4220233,1 16.4220233,1 16.4220233,1 C16.3346771,1 16.2691674,1.046842 16.2254944,1.11710501 L15.8761096,1.84315604 L15.1118304,1.96026104 C15.0244842,1.98368204 14.9589746,2.03052404 14.937138,2.12420805 C14.9153015,2.21789205 14.937138,2.28815506 14.9808111,2.35841806 L15.5267248,2.92052208 L15.3957055,3.74025712 C15.373869,3.83394112 15.4175421,3.90420413 15.4830517,3.95104613 C15.5267248,3.97446713 15.5703979,3.99788813 15.614071,3.99788813 C15.6577441,3.99788813 15.6795806,3.99788813 15.7014172,3.97446713 L16.3783502,3.59973111 L17.0552832,3.97446713 C17.1207928,4.02130913 17.208139,3.99788813 17.2736487,3.95104613 C17.3391583,3.90420413 17.3609949,3.81052012 17.3609949,3.74025712 L17.2299756,2.92052208 L17.7758893,2.35841806 C17.9069086,2.31157606 17.9287451,2.21789205 17.9069086,2.12420805 Z" id="Shape"></path>
                        <path d="M14.6843947,15.7009346 C9.65152037,15.7009346 5.5713712,11.588785 5.5713712,6.56282451 C5.5713712,3.98753894 6.64836489,1.66147456 8.34670109,0 C3.60378657,0.809968847 0,4.94288681 0,9.92731049 C0,15.4724818 4.51508893,20 10.0450373,20 C13.8766495,20 17.2111876,17.8400831 18.9095238,14.6832814 C17.6254159,15.3271028 16.1963282,15.7009346 14.6843947,15.7009346 Z" id="Shape"></path>
                    </g>
                </g>
            </g>
        </g>
    </g>
</svg>