<?xml version="1.0" encoding="UTF-8"?>
<svg width="48px" height="48px" viewBox="0 0 48 48" version="1.1" xmlns="http://www.w3.org/2000/svg" xmlns:xlink="http://www.w3.org/1999/xlink">
    <title>笔记本切图</title>
    <g id="小溪里-增加响应式" stroke="none" stroke-width="1" fill="none" fill-rule="evenodd">
        <g id="小溪里首页-PC-1440-深色模式" transform="translate(-170.000000, -576.000000)" fill-rule="nonzero">
            <g id="模块-核心竞争力" transform="translate(120.000000, 548.000000)">
                <g id="Group-10" transform="translate(50.000000, 28.000000)">
                    <g id="laptop" transform="translate(0.000000, 8.000000)">
                        <path d="M40.2649985,4.46511628 L8.8512806,4.46511628 C8.27843955,4.46511628 7.81395349,4.93261463 7.81395349,5.50938231 L7.81395349,21.2813154 C7.81395349,21.858083 8.27843955,22.3255814 8.8512806,22.3255814 C9.42412164,22.3255814 9.8886077,21.858083 9.8886077,21.2813154 L9.8886077,6.55355358 L39.2276714,6.55355358 L39.2276714,21.2812206 L39.2276714,21.2812206 C39.2276714,21.8579883 39.6921574,22.3255814 40.2649985,22.3255814 C40.8378395,22.3255814 41.3023256,21.8579883 41.3023256,21.2812206 L41.3023256,5.50928754 C41.3023256,4.93261463 40.8377454,4.46511628 40.2649985,4.46511628 Z" id="Shape" fill="#FFFFFF"></path>
                        <path d="M47.0703732,24.98182 L45.1677132,24.98182 L45.1677132,3.14338344 C45.1677132,1.41012476 43.766898,0 42.0450821,0 L5.95501163,0 C4.23310202,0 2.83238053,1.41012476 2.83238053,3.14338344 L2.83238053,24.98182 L0.929720566,24.98182 C0.416250813,24.98182 0,25.4007428 0,25.9177193 L0,27.7549773 C0,30.3008838 2.05753527,32.372093 4.58663396,32.372093 L43.413366,32.372093 C45.9424647,32.372093 48,30.3008838 48,27.7549773 L48,25.9177193 C48,25.4007428 47.5839367,24.98182 47.0703732,24.98182 Z M4.89835332,3.14338344 C4.89835332,2.55694821 5.37244799,2.0797028 5.95501163,2.0797028 L42.0448946,2.0797028 C42.6276457,2.0797028 43.1015529,2.55685384 43.1015529,3.14338344 L43.1015529,24.98182 L29.1140256,24.98182 C29.0481192,24.9796494 28.9801503,24.9853118 28.9126502,24.9984297 C28.4750244,25.0831768 28.158805,25.4687859 28.158805,25.9173418 C28.158805,26.7073401 27.5203662,27.3499274 26.735771,27.3499274 L21.2644165,27.3499274 C20.4796337,27.3499274 19.8413825,26.7072457 19.8413825,25.9173418 C19.8413825,25.3932873 19.4100379,24.9704008 18.8900994,24.9816313 L4.89835332,24.9816313 L4.89835332,3.14338344 Z M46.1407464,27.7549773 L46.1407464,27.7549773 C46.1407464,29.2688182 44.917119,30.5002944 43.4134598,30.5002944 L4.58663396,30.5002944 C3.08288102,30.5002944 1.85944113,29.2688182 1.85944113,27.7549773 L1.85944113,26.8536186 L18.1160041,26.8536186 C18.5179112,28.221181 19.7772574,29.2218203 21.2643228,29.2218203 L26.7356772,29.2218203 C28.2227426,29.2218203 29.4820888,28.2210866 29.8840896,26.8536186 L46.1407464,26.8536186 L46.1407464,27.7549773 L46.1407464,27.7549773 Z" id="Shape" fill="#FFFFFF"></path>
                        <path d="M25.3588776,10.3620466 C24.9380585,9.94133332 24.2560853,9.94133332 23.8351684,10.3620466 L17.059727,17.1376514 C16.6390057,17.5583647 16.6390057,18.2405205 17.059727,18.6612337 C17.2701366,18.8716392 17.5458591,18.9767442 17.8214839,18.9767442 C18.0972064,18.9767442 18.3728312,18.8714437 18.5832407,18.6612337 L25.3588776,11.8857266 C25.7795989,11.4650134 25.7795989,10.7828576 25.3588776,10.3620466 Z" id="Shape" fill="#5773FF"></path>
                        <path d="M28.7329958,14.8018941 C28.3458774,14.4148725 27.7185191,14.4148725 27.3314008,14.8018941 L24.8484108,17.2848402 C24.4613824,17.6718618 24.4613824,18.299389 24.8484108,18.6865005 C25.04197,18.8800563 25.2956116,18.9767442 25.5491634,18.9767442 C25.802895,18.9767442 26.0563567,18.8800563 26.2499159,18.6865005 L28.7329058,16.2035543 C29.1200242,15.8165328 29.1200242,15.1890056 28.7329958,14.8018941 Z" id="Shape" fill="#5773FF"></path>
                    </g>
                </g>
            </g>
        </g>
    </g>
</svg>