<?xml version="1.0" encoding="UTF-8"?>
<svg width="39px" height="48px" viewBox="0 0 39 48" version="1.1" xmlns="http://www.w3.org/2000/svg" xmlns:xlink="http://www.w3.org/1999/xlink">
    <title>圆环切图</title>
    <g id="小溪里-增加响应式" stroke="none" stroke-width="1" fill="none" fill-rule="evenodd">
        <g id="小溪里首页-PC-1440" transform="translate(-791.000000, -576.000000)" fill-rule="nonzero">
            <g id="模块-核心竞争力" transform="translate(120.000000, 548.000000)">
                <g id="交互动画" transform="translate(621.000000, 0.000000)">
                    <g id="Group-6" transform="translate(50.000000, 28.000000)">
                        <g id="atomic" transform="translate(0.000000, 4.000000)">
                            <path d="M20.1521181,14.905126 C17.4336969,14.905126 15.2219921,17.1168307 15.2219921,19.835252 C15.2219921,22.5538228 17.4336969,24.7654528 20.1521181,24.7654528 C22.8707638,24.7654528 25.0824685,22.553748 25.0824685,19.835252 C25.0824685,17.1168307 22.8707638,14.905126 20.1521181,14.905126 Z M20.1521181,22.899937 C18.4622402,22.899937 17.0875079,21.5251299 17.0875079,19.835252 C17.0875079,18.145374 18.462315,16.7706417 20.1521181,16.7706417 C21.8419961,16.7706417 23.216878,18.1454488 23.216878,19.835252 C23.216878,21.5250551 21.8420709,22.899937 20.1521181,22.899937 Z" id="Shape" fill="#0D5AFE"></path>
                            <path d="M38.1718976,11.3111339 C38.5349921,8.64290551 38.118189,6.37337795 36.9663701,4.69696457 C37.154874,4.28083465 37.2607205,3.81959843 37.2607205,3.33382677 C37.2607205,1.50541339 35.7732598,0.0178779528 33.9447717,0.0178779528 C32.7091732,0.0178779528 31.6299134,0.69776378 31.0595394,1.70251969 C27.935685,1.54640551 24.1109252,2.69425984 20.1519685,4.98136614 C13.3926063,1.07492126 7.27273622,0.605681102 4.09809055,3.78144882 C2.71834646,5.16119291 2.00375197,7.13539764 2.00704331,9.52049606 C0.82769685,10.0292323 0,11.2028937 0,12.5666299 C0,14.3950433 1.48753543,15.8825787 3.31594882,15.8825787 C3.33517323,15.8825787 3.35409843,15.8814567 3.37324803,15.8810827 C3.88325591,17.1781693 4.52835827,18.5034567 5.29793307,19.8353268 C1.39148819,26.5946142 0.922322835,32.7144843 4.09794094,35.8891299 C5.49892913,37.2904921 7.47275984,37.9821969 9.82240157,37.9821969 C12.797622,37.9821969 16.3752323,36.8718937 20.1518937,34.6893622 C23.9288543,36.8721181 27.5060906,37.9821969 30.4816102,37.9821969 C32.8311772,37.9821969 34.8056063,37.2904921 36.2067441,35.8893543 C39.3821378,32.7138858 38.9121496,26.5937165 35.0046575,19.8348031 C36.7233346,16.8595827 37.8165827,13.9223622 38.1718976,11.3111339 Z M33.9447717,1.8833937 C34.7444921,1.8833937 35.3952047,2.5341063 35.3952047,3.33382677 C35.3952047,4.13354724 34.7444921,4.78425984 33.9447717,4.78425984 C33.1450512,4.78425984 32.4943386,4.13354724 32.4943386,3.33382677 C32.4943386,2.5341063 33.1449764,1.8833937 33.9447717,1.8833937 Z M30.6369016,3.55397244 C30.7506772,5.28005512 32.1903386,6.64985039 33.9447717,6.64985039 C34.5799252,6.64985039 35.1737126,6.47002362 35.6784843,6.15914173 C36.3689921,7.41284252 36.5922047,9.08454331 36.323437,11.0597205 C36.0349961,13.1798661 35.1951811,15.5623465 33.8805157,18.0182087 C32.3817598,15.7450906 30.5805748,13.5506654 28.508752,11.4786929 C26.4370039,9.40694488 24.2419055,7.60531102 21.9675906,6.10528346 C25.1521102,4.39767717 28.1594961,3.51200787 30.6369016,3.55397244 Z M3.31594882,14.017063 C2.51622835,14.017063 1.86551575,13.3664252 1.86551575,12.5666299 C1.86551575,11.7669094 2.51622835,11.1161969 3.31594882,11.1161969 C4.11566929,11.1161969 4.76638189,11.7669094 4.76638189,12.5666299 C4.76645669,13.3663504 4.11574409,14.017063 3.31594882,14.017063 Z M5.15962205,15.3213307 C6.0468622,14.7255984 6.63197244,13.7132126 6.63197244,12.5666299 C6.63197244,10.9282165 5.43706693,9.56425591 3.87315748,9.29840551 C3.91093307,7.52100787 4.43732283,6.08052362 5.41724409,5.10052756 C7.80241732,2.7146811 12.7789213,3.13417717 18.3348504,6.10625591 C16.0609843,7.60605906 13.8665591,9.4073937 11.7952598,11.4786929 C9.72366142,13.5502913 7.92225197,15.7449409 6.42244882,18.0188819 C5.93525591,17.1088268 5.51359055,16.2071496 5.15962205,15.3213307 Z M5.41701969,34.5700512 C3.03117323,32.1849528 3.45066929,27.208374 6.42274803,21.6525945 C7.92247638,23.9263858 9.72381102,26.120811 11.795185,28.192185 C13.8665591,30.2634843 16.0609843,32.0648189 18.3347756,33.564622 C12.7788465,36.5364764 7.80241732,36.9559724 5.41701969,34.5700512 Z M13.1144134,26.8729567 C10.8920866,24.6507047 8.99635039,22.2854291 7.47268504,19.8353268 C8.99620079,17.3852992 10.8920118,15.0200984 13.1144134,12.7976969 C15.3367402,10.5753701 17.7019409,8.67955906 20.1520433,7.1559685 C22.6020709,8.67963386 24.9673465,10.5753701 27.1896732,12.7976969 C29.4126732,15.0207717 31.308185,17.3858976 32.8305039,19.8353268 C31.3082598,22.2846063 29.412748,24.6498819 27.1896732,26.8729567 C24.9673465,29.0952835 22.6020709,30.9910945 20.1520433,32.514685 C17.7020157,30.9910945 15.3366654,29.0952835 13.1144134,26.8729567 Z M34.8875906,34.570126 C32.5016693,36.9558228 27.5249409,36.5364764 21.9690866,33.5645472 C24.242878,32.0648189 26.4373031,30.2634843 28.5086772,28.1921102 C30.5806496,26.1201378 32.381685,23.9257126 33.8803661,21.6527441 C36.8531181,27.2082244 37.2731378,32.1847283 34.8875906,34.570126 Z" id="Shape" fill="#000000"></path>
                        </g>
                    </g>
                </g>
            </g>
        </g>
    </g>
</svg>