<?xml version="1.0" encoding="UTF-8"?>
<svg width="24px" height="24px" viewBox="0 0 24 24" version="1.1" xmlns="http://www.w3.org/2000/svg" xmlns:xlink="http://www.w3.org/1999/xlink">
    <title>订阅切图</title>
    <g id="小溪里-增加响应式" stroke="none" stroke-width="1" fill="none" fill-rule="evenodd">
        <g id="小溪里首页-PC-1440" transform="translate(-1296.000000, -36.000000)" fill="#FFFFFF" fill-rule="nonzero">
            <g id="Header" transform="translate(120.000000, 21.000000)">
                <g id="切换区" transform="translate(1044.000000, 15.000000)">
                    <g id="订阅" transform="translate(137.000000, 1.000000)">
                        <path d="M2.40361446,14.6506024 C1.20332244,14.6506024 0.228915663,15.6274488 0.228915663,16.8253012 C0.228915663,18.0231536 1.20332244,19 2.40361446,19 C3.59947734,19 4.57831325,18.0231536 4.57831325,16.8253012 C4.57388412,15.6274488 3.59947734,14.6506024 2.40361446,14.6506024 L2.40361446,14.6506024 L2.40361446,14.6506024 Z" id="Shape"></path>
                        <path d="M0.88722858,0 C0.399252844,0 0,0.399252844 0,0.88722858 C0,1.37520431 0.399252844,1.77445716 0.88722858,1.77445716 C9.89703479,1.77445716 17.2255428,9.10296521 17.2255428,18.1127714 C17.2255428,18.6007472 17.6247957,19 18.1127714,19 C18.6007472,19 19,18.6007472 19,18.1127714 C19,8.12257763 10.8729863,0 0.88722858,0 L0.88722858,0" id="Shape"></path>
                        <path d="M9.26477246,9.74121477 C8.20783659,8.68357151 6.96074072,7.85949116 5.55444113,7.29100793 C4.10834063,6.70489731 2.53399262,6.40963855 0.884465153,6.40963855 C0.398009303,6.40963855 0,6.80625475 0,7.29100793 C0,7.7757611 0.398009303,8.1723773 0.884465153,8.1723773 C6.6423333,8.1723773 10.8214311,12.3544749 10.8214311,18.1186306 C10.8214311,18.6033838 11.2194404,19 11.7058963,19 C12.1923521,19 12.5903614,18.6033838 12.5903614,18.1186306 C12.5903614,16.4748768 12.2940656,14.9060393 11.7103186,13.4605935 C11.1442609,12.0459957 10.3217083,10.798858 9.26477246,9.74121477 L9.26477246,9.74121477" id="Shape"></path>
                    </g>
                </g>
            </g>
        </g>
    </g>
</svg>