<?xml version="1.0" encoding="UTF-8"?>
<svg width="2000px" height="900px" viewBox="0 0 2000 900" version="1.1" xmlns="http://www.w3.org/2000/svg" xmlns:xlink="http://www.w3.org/1999/xlink">
    <!-- Generator: Sketch 64 (93537) - https://sketch.com -->
    <title>taro-背景</title>
    <desc>Created with Sketch.</desc>
    <defs>
        <radialGradient cx="32.2837089%" cy="42.1349706%" fx="32.2837089%" fy="42.1349706%" r="46.513033%" gradientTransform="translate(0.322837,0.421350),scale(0.450000,1.000000),rotate(90.000000),translate(-0.322837,-0.421350)" id="radialGradient-1">
            <stop stop-color="#3058E5" offset="0%"></stop>
            <stop stop-color="#0000C2" offset="100%"></stop>
        </radialGradient>
        <path d="M0,0 L2000,0 L2000,665.21676 C1947.97535,674.956009 1893.03387,674.956009 1835.17556,665.21676 C1723.44688,646.40955 1621.83106,573.950931 1495,573.950931 C1257.17576,573.950931 1142.80681,784.586327 969.777319,828.627441 C689.367588,900 617.183759,749.223009 405,749.223009 C284.463006,749.223009 149.463006,799.482006 0,900 L0,0 Z" id="path-2"></path>
    </defs>
    <g id="官网-网页" stroke="none" stroke-width="1" fill="none" fill-rule="evenodd">
        <g id="HiOur-首页-1200">
            <g id="taro-背景">
                <g id="Mask" fill="url(#radialGradient-1)" fill-rule="nonzero">
                    <path d="M0,0 L2000,0 L2000,665.21676 C1947.97535,674.956009 1893.03387,674.956009 1835.17556,665.21676 C1723.44688,646.40955 1621.83106,573.950931 1495,573.950931 C1257.17576,573.950931 1142.80681,784.586327 969.777319,828.627441 C689.367588,900 617.183759,749.223009 405,749.223009 C284.463006,749.223009 149.463006,799.482006 0,900 L0,0 Z" id="path-2"></path>
                </g>
                <g id="Clipped">
                    <mask id="mask-3" fill="white">
                        <use xlink:href="#path-2"></use>
                    </mask>
                    <g id="path-2"></g>
                    <path d="M5,908.955967 C160.581525,753.601014 359.422983,675.923536 601.524372,675.923536 C888.302248,675.923536 945.529279,850.089862 1307.0036,834.247482 C1447.73164,828.079777 1674.8833,675.923536 1841.61664,675.923536 C1915.08818,675.923536 1969.5493,689.325242 2005,716.128653 L2005,992.571429 L5,992.571429 L5,908.955967 Z" id="路径" fill="#3058E5" fill-rule="nonzero" opacity="0.802957589" mask="url(#mask-3)"></path>
                </g>
            </g>
        </g>
    </g>
</svg>